<?xml version="1.0" encoding="UTF-8"?>
<!DOCTYPE svg PUBLIC "-//W3C//DTD SVG 1.1//EN" "http://www.w3.org/Graphics/SVG/1.1/DTD/svg11.dtd">
<svg xmlns="http://www.w3.org/2000/svg" version="1.1" width="512px" height="512px" style="shape-rendering:geometricPrecision; text-rendering:geometricPrecision; image-rendering:optimizeQuality; fill-rule:evenodd; clip-rule:evenodd" xmlns:xlink="http://www.w3.org/1999/xlink">
<g><path style="opacity:0.999" fill="#ff9802" d="M 490.5,202.5 C 333.833,202.5 177.167,202.5 20.5,202.5C 20.5,166.833 20.5,131.167 20.5,95.5C 177.167,95.5 333.833,95.5 490.5,95.5C 490.5,131.167 490.5,166.833 490.5,202.5 Z"/></g>
<g><path style="opacity:0.998" fill="#f4f4f4" d="M 20.5,202.5 C 177.167,202.5 333.833,202.5 490.5,202.5C 490.5,237.833 490.5,273.167 490.5,308.5C 333.833,308.5 177.167,308.5 20.5,308.5C 20.5,273.167 20.5,237.833 20.5,202.5 Z"/></g>
<g><path style="opacity:1" fill="#180f8d" d="M 249.5,213.5 C 276.744,213.416 292.744,226.749 297.5,253.5C 295.167,280.5 280.5,295.167 253.5,297.5C 228.651,293.317 215.318,278.651 213.5,253.5C 216.79,232.215 228.79,218.882 249.5,213.5 Z"/></g>
<g><path style="opacity:1" fill="#e6e6ee" d="M 246.5,219.5 C 252.007,219.664 257.507,219.664 263,219.5C 265.682,220.067 267.849,221.401 269.5,223.5C 271.523,222.959 273.523,223.459 275.5,225C 276.337,226.011 276.67,227.178 276.5,228.5C 280.833,228.167 282.833,230.167 282.5,234.5C 285.518,234.8 287.518,236.467 288.5,239.5C 288.167,240.167 287.833,240.833 287.5,241.5C 289.599,243.151 290.933,245.318 291.5,248C 291.5,253 291.5,258 291.5,263C 290.933,265.682 289.599,267.849 287.5,269.5C 288.041,271.523 287.541,273.523 286,275.5C 284.989,276.337 283.822,276.67 282.5,276.5C 282.833,280.833 280.833,282.833 276.5,282.5C 276.67,283.822 276.337,284.989 275.5,286C 273.523,287.541 271.523,288.041 269.5,287.5C 267.72,289.444 265.553,290.777 263,291.5C 258,291.5 253,291.5 248,291.5C 245.318,290.933 243.151,289.599 241.5,287.5C 240.833,287.833 240.167,288.167 239.5,288.5C 236.467,287.518 234.8,285.518 234.5,282.5C 230.167,282.833 228.167,280.833 228.5,276.5C 227.178,276.67 226.011,276.337 225,275.5C 223.459,273.523 222.959,271.523 223.5,269.5C 221.401,267.849 220.067,265.682 219.5,263C 219.5,258 219.5,253 219.5,248C 220.067,245.318 221.401,243.151 223.5,241.5C 223.167,240.833 222.833,240.167 222.5,239.5C 223.482,236.467 225.482,234.8 228.5,234.5C 228.167,230.167 230.167,228.167 234.5,228.5C 234.8,225.482 236.467,223.482 239.5,222.5C 240.167,222.833 240.833,223.167 241.5,223.5C 242.981,221.851 244.648,220.518 246.5,219.5 Z"/></g>
<g><path style="opacity:1" fill="#2c2295" d="M 257.5,263.5 C 257.833,263.5 258.167,263.5 258.5,263.5C 260.952,270.342 262.452,277.342 263,284.5C 260.239,277.721 258.406,270.721 257.5,263.5 Z"/></g>
<g><path style="opacity:1" fill="#1b1590" d="M 254.5,264.5 C 255.167,264.5 255.833,264.5 256.5,264.5C 256.5,269.167 256.5,273.833 256.5,278.5C 255.833,278.5 255.167,278.5 254.5,278.5C 254.5,273.833 254.5,269.167 254.5,264.5 Z"/></g>
<g><path style="opacity:1" fill="#2c2295" d="M 253.5,264.5 C 252.386,271.346 250.552,278.012 248,284.5C 248.244,279.108 249.077,273.774 250.5,268.5C 251.179,266.315 252.179,264.981 253.5,264.5 Z"/></g>
<g><path style="opacity:1" fill="#a4a2d1" d="M 251.5,262.5 C 254.167,262.5 256.833,262.5 259.5,262.5C 259.5,262.833 259.5,263.167 259.5,263.5C 259.167,263.5 258.833,263.5 258.5,263.5C 258.167,263.5 257.833,263.5 257.5,263.5C 256.833,263.5 256.5,263.833 256.5,264.5C 255.833,264.5 255.167,264.5 254.5,264.5C 254.167,264.5 253.833,264.5 253.5,264.5C 252.179,264.981 251.179,266.315 250.5,268.5C 250.167,268.5 249.833,268.5 249.5,268.5C 250.167,266.5 250.833,264.5 251.5,262.5 Z"/></g>
<g><path style="opacity:1" fill="#2b2295" d="M 259.5,262.5 C 264.145,267.768 267.812,273.768 270.5,280.5C 270.154,281.696 269.654,281.696 269,280.5C 265.3,275.097 262.133,269.43 259.5,263.5C 259.5,263.167 259.5,262.833 259.5,262.5 Z"/></g>
<g><path style="opacity:1" fill="#2d2496" d="M 251.5,262.5 C 250.833,264.5 250.167,266.5 249.5,268.5C 239.081,286.097 238.248,285.764 247,267.5C 248.517,265.76 250.017,264.094 251.5,262.5 Z"/></g>
<g><path style="opacity:1" fill="#1d1690" d="M 239.5,272.5 C 239.167,272.5 238.833,272.5 238.5,272.5C 240.743,268.585 243.743,265.251 247.5,262.5C 248.521,263.002 248.688,263.668 248,264.5C 245.297,267.371 242.464,270.038 239.5,272.5 Z"/></g>
<g><path style="opacity:1" fill="#2c2396" d="M 273.5,273.5 C 269.25,270.921 265.583,267.588 262.5,263.5C 263.002,262.479 263.668,262.312 264.5,263C 268.107,266.098 271.107,269.598 273.5,273.5 Z"/></g>
<g><path style="opacity:1" fill="#8a87c5" d="M 229.5,261.5 C 229.5,262.167 229.833,262.5 230.5,262.5C 228.086,263.933 225.419,264.433 222.5,264C 224.9,263.256 227.233,262.423 229.5,261.5 Z"/></g>
<g><path style="opacity:1" fill="#2b2295" d="M 262.5,259.5 C 262.833,259.5 263.167,259.5 263.5,259.5C 269.43,262.133 275.097,265.3 280.5,269C 281.696,269.654 281.696,270.154 280.5,270.5C 273.768,267.812 267.768,264.145 262.5,259.5 Z"/></g>
<g><path style="opacity:1" fill="#2d2496" d="M 248.5,259.5 C 243.232,264.145 237.232,267.812 230.5,270.5C 229.304,270.154 229.304,269.654 230.5,269C 234.069,267.058 237.402,264.892 240.5,262.5C 243.162,261.501 245.828,260.501 248.5,259.5 Z"/></g>
<g><path style="opacity:1" fill="#a6a3d1" d="M 247.5,252.5 C 247.833,252.5 248.167,252.5 248.5,252.5C 248.5,254.833 248.5,257.167 248.5,259.5C 245.828,260.501 243.162,261.501 240.5,262.5C 240.158,261.662 239.492,261.328 238.5,261.5C 241.979,260.642 244.646,259.309 246.5,257.5C 246.158,256.662 245.492,256.328 244.5,256.5C 244.5,255.833 244.5,255.167 244.5,254.5C 245.492,254.672 246.158,254.338 246.5,253.5C 247.167,253.5 247.5,253.167 247.5,252.5 Z"/></g>
<g><path style="opacity:1" fill="#2b2195" d="M 263.5,258.5 C 263.5,258.167 263.5,257.833 263.5,257.5C 270.721,258.406 277.721,260.239 284.5,263C 277.342,262.452 270.342,260.952 263.5,258.5 Z"/></g>
<g><path style="opacity:1" fill="#291f94" d="M 246.5,257.5 C 244.646,259.309 241.979,260.642 238.5,261.5C 235.794,261.575 233.127,261.908 230.5,262.5C 229.833,262.5 229.5,262.167 229.5,261.5C 234.977,259.381 240.643,258.048 246.5,257.5 Z"/></g>
<g><path style="opacity:1" fill="#9c9bcd" d="M 280.5,254.5 C 291.167,255.167 291.167,255.833 280.5,256.5C 280.5,255.833 280.5,255.167 280.5,254.5 Z"/></g>
<g><path style="opacity:1" fill="#1b1590" d="M 266.5,254.5 C 271.167,254.5 275.833,254.5 280.5,254.5C 280.5,255.167 280.5,255.833 280.5,256.5C 275.833,256.5 271.167,256.5 266.5,256.5C 266.5,255.833 266.5,255.167 266.5,254.5 Z"/></g>
<g><path style="opacity:1" fill="#7470ba" d="M 261.5,249.5 C 262.167,249.5 262.833,249.5 263.5,249.5C 263.167,250.167 262.833,250.833 262.5,251.5C 262.5,252.167 262.833,252.5 263.5,252.5C 263.5,252.833 263.5,253.167 263.5,253.5C 264.209,254.404 265.209,254.737 266.5,254.5C 266.5,255.167 266.5,255.833 266.5,256.5C 265.209,256.263 264.209,256.596 263.5,257.5C 263.5,257.833 263.5,258.167 263.5,258.5C 263.5,258.833 263.5,259.167 263.5,259.5C 263.167,259.5 262.833,259.5 262.5,259.5C 262.384,256.14 262.051,252.807 261.5,249.5 Z"/></g>
<g><path style="opacity:1" fill="#15118e" d="M 230.5,254.5 C 235.167,254.5 239.833,254.5 244.5,254.5C 244.5,255.167 244.5,255.833 244.5,256.5C 239.833,256.5 235.167,256.5 230.5,256.5C 230.5,255.833 230.5,255.167 230.5,254.5 Z"/></g>
<g><path style="opacity:1" fill="#7c7bbf" d="M 230.5,254.5 C 230.5,255.167 230.5,255.833 230.5,256.5C 219.833,255.833 219.833,255.167 230.5,254.5 Z"/></g>
<g><path style="opacity:1" fill="#2e2496" d="M 263.5,253.5 C 263.5,253.167 263.5,252.833 263.5,252.5C 270.261,249.781 277.261,248.281 284.5,248C 277.721,250.761 270.721,252.594 263.5,253.5 Z"/></g>
<g><path style="opacity:1" fill="#271d93" d="M 233.5,250.5 C 233.842,249.662 234.508,249.328 235.5,249.5C 239.584,250.188 243.584,251.188 247.5,252.5C 247.5,253.167 247.167,253.5 246.5,253.5C 241.962,253.282 237.629,252.282 233.5,250.5 Z"/></g>
<g><path style="opacity:1" fill="#110b8b" d="M 251.5,248.5 C 251.833,248.5 252.167,248.5 252.5,248.5C 254.5,248.5 256.5,248.5 258.5,248.5C 258.833,248.5 259.167,248.5 259.5,248.5C 259.842,249.338 260.508,249.672 261.5,249.5C 262.051,252.807 262.384,256.14 262.5,259.5C 261.5,260.5 260.5,261.5 259.5,262.5C 256.833,262.5 254.167,262.5 251.5,262.5C 250.5,261.5 249.5,260.5 248.5,259.5C 248.5,257.167 248.5,254.833 248.5,252.5C 248.5,252.167 248.5,251.833 248.5,251.5C 249.5,250.5 250.5,249.5 251.5,248.5 Z"/></g>
<g><path style="opacity:1" fill="#6057af" d="M 235.5,249.5 C 234.508,249.328 233.842,249.662 233.5,250.5C 229.82,249.44 226.154,248.274 222.5,247C 227.054,247.059 231.387,247.892 235.5,249.5 Z"/></g>
<g><path style="opacity:1" fill="#291f94" d="M 262.5,251.5 C 262.833,250.833 263.167,250.167 263.5,249.5C 269.167,245.832 275.167,242.998 281.5,241C 275.724,245.554 269.39,249.054 262.5,251.5 Z"/></g>
<g><path style="opacity:1" fill="#7977bd" d="M 254.5,244.5 C 255.167,244.5 255.833,244.5 256.5,244.5C 256.328,245.492 256.662,246.158 257.5,246.5C 257.5,247.167 257.833,247.5 258.5,247.5C 258.5,247.833 258.5,248.167 258.5,248.5C 256.5,248.5 254.5,248.5 252.5,248.5C 252.5,248.167 252.5,247.833 252.5,247.5C 253.167,247.5 253.5,247.167 253.5,246.5C 254.338,246.158 254.672,245.492 254.5,244.5 Z"/></g>
<g><path style="opacity:1" fill="#2d2396" d="M 248.5,251.5 C 241.61,249.054 235.276,245.554 229.5,241C 236.68,242.924 243.013,246.424 248.5,251.5 Z"/></g>
<g><path style="opacity:1" fill="#2a1e94" d="M 263.5,249.5 C 262.833,249.5 262.167,249.5 261.5,249.5C 265.458,243.708 270.291,238.708 276,234.5C 276.667,235.167 276.667,235.833 276,236.5C 271.63,240.702 267.463,245.036 263.5,249.5 Z"/></g>
<g><path style="opacity:1" fill="#372b9a" d="M 258.5,247.5 C 257.833,247.5 257.5,247.167 257.5,246.5C 258.74,238.276 260.906,230.276 264,222.5C 262.969,230.961 261.136,239.295 258.5,247.5 Z"/></g>
<g><path style="opacity:1" fill="#302597" d="M 234.5,235.5 C 234.897,234.475 235.563,234.308 236.5,235C 240.682,239.015 244.682,243.182 248.5,247.5C 247.998,248.521 247.332,248.688 246.5,248C 242.269,243.938 238.269,239.771 234.5,235.5 Z"/></g>
<g><path style="opacity:1" fill="#292094" d="M 259.5,248.5 C 261.946,241.61 265.446,235.276 270,229.5C 268.076,236.68 264.576,243.013 259.5,248.5 Z"/></g>
<g><path style="opacity:1" fill="#281f94" d="M 251.5,248.5 C 246.424,243.013 242.924,236.68 241,229.5C 245.554,235.276 249.054,241.61 251.5,248.5 Z"/></g>
<g><path style="opacity:1" fill="#15118e" d="M 254.5,230.5 C 255.167,230.5 255.833,230.5 256.5,230.5C 256.5,235.167 256.5,239.833 256.5,244.5C 255.833,244.5 255.167,244.5 254.5,244.5C 254.5,239.833 254.5,235.167 254.5,230.5 Z"/></g>
<g><path style="opacity:1" fill="#271d93" d="M 249.5,229.5 C 251.619,234.977 252.952,240.643 253.5,246.5C 253.5,247.167 253.167,247.5 252.5,247.5C 250.696,241.951 249.363,236.284 248.5,230.5C 248.5,229.833 248.833,229.5 249.5,229.5 Z"/></g>
<g><path style="opacity:1" fill="#7c7bbe" d="M 256.5,230.5 C 255.833,230.5 255.167,230.5 254.5,230.5C 255.167,219.833 255.833,219.833 256.5,230.5 Z"/></g>
<g><path style="opacity:1" fill="#7875bc" d="M 249.5,229.5 C 248.833,229.5 248.5,229.833 248.5,230.5C 247.067,228.086 246.567,225.419 247,222.5C 247.744,224.9 248.577,227.233 249.5,229.5 Z"/></g>
<g><path style="opacity:1" fill="#786ab8" d="M 273.5,273.5 C 275.337,273.639 275.67,274.306 274.5,275.5C 273.702,275.043 273.369,274.376 273.5,273.5 Z"/></g>
<g><path style="opacity:1" fill="#8175bd" d="M 238.5,272.5 C 238.833,272.5 239.167,272.5 239.5,272.5C 238.438,274.757 236.772,275.923 234.5,276C 235.705,274.624 237.038,273.458 238.5,272.5 Z"/></g>
<g><path style="opacity:1" fill="#817fc1" d="M 254.5,278.5 C 255.167,278.5 255.833,278.5 256.5,278.5C 255.833,289.167 255.167,289.167 254.5,278.5 Z"/></g>
<g><path style="opacity:0.999" fill="#388e3c" d="M 20.5,308.5 C 177.167,308.5 333.833,308.5 490.5,308.5C 490.5,344.167 490.5,379.833 490.5,415.5C 333.833,415.5 177.167,415.5 20.5,415.5C 20.5,379.833 20.5,344.167 20.5,308.5 Z"/></g>
</svg>
